<svg width="512" height="512" viewBox="0 0 512 512" xmlns="http://www.w3.org/2000/svg" xmlns:xlink="http://www.w3.org/1999/xlink" id="Capa_1" overflow="hidden"><path d="M330.516 54.141C328.752 48.71 324.058 44.753 318.408 43.932L284.583 39.016 269.451 8.362C266.924 3.241 261.709 5.32907e-15 255.999 5.32907e-15 250.289 5.32907e-15 245.075 3.242 242.549 8.362L227.422 39.015 193.593 43.931C187.944 44.751 183.248 48.709 181.485 54.14 179.72 59.57 181.192 65.531 185.28 69.516L209.759 93.376 203.982 127.068C203.017 132.696 205.331 138.383 209.95 141.739 212.563 143.637 215.658 144.603 218.767 144.603 221.156 144.603 223.552 144.034 225.747 142.879L256 126.974 286.26 142.882C288.453 144.035 290.85 144.605 293.239 144.605L293.28 144.605C301.554 144.594 308.261 137.882 308.261 129.605 308.261 128.454 308.13 127.331 307.884 126.253L302.243 93.376 326.721 69.517C330.809 65.531 332.28 59.57 330.516 54.141Z" fill="#FFD400"/><path d="M408.634 337.401C372.061 337.401 337.856 357.026 319.367 388.62 315.183 395.769 317.588 404.958 324.737 409.143 327.123 410.539 329.735 411.186 332.313 411.183L332.311 470.452C328.429 470.452 324.55 471.944 321.613 474.932 315.806 480.84 315.888 490.337 321.797 496.144 332.199 506.369 345.921 512 360.434 512L456.833 512C487.252 512 512 487.253 512 456.834L512 440.768C512 383.771 465.63 337.401 408.634 337.401Z" fill="#8DB9C4"/><path d="M408.634 337.401 408.633 512 456.834 512C487.252 512 512 487.253 512 456.834L512 440.768C512 383.771 465.631 337.401 408.634 337.401Z" fill="#678C97"/><path d="M179.685 470.454 179.688 411.183C182.267 411.186 184.88 410.537 187.267 409.141 194.415 404.956 196.82 395.768 192.634 388.619 174.142 357.026 139.936 337.401 103.365 337.401 46.37 337.401-1.42109e-14 383.771-1.42109e-14 440.768L-1.42109e-14 456.834C-1.42109e-14 487.253 24.748 512 55.167 512L151.566 512C166.078 512 179.798 506.369 190.199 496.146 196.107 490.339 196.189 480.842 190.383 474.934 187.447 471.948 183.567 470.456 179.685 470.454Z" fill="#3D5959"/><path d="M103.367 337.401 103.366 512 151.567 512C181.986 512 206.733 487.253 206.733 456.834L206.733 440.768C206.733 383.771 160.363 337.401 103.367 337.401Z" fill="#293939"/><path d="M256 337.401C199.004 337.401 152.634 383.77 152.634 440.767L152.634 456.833C152.634 487.252 177.381 511.999 207.8 511.999L304.2 511.999C334.619 511.999 359.366 487.252 359.366 456.833L359.366 440.767C359.366 383.771 312.996 337.401 256 337.401Z" fill="#FF8A3C"/><path d="M256 337.401 255.999 337.401 255.999 512 304.2 512C334.619 512 359.366 487.253 359.366 456.834L359.366 440.768C359.366 383.771 312.996 337.401 256 337.401Z" fill="#E56705"/><path d="M103.366 192.801C55.228 192.801 16.066 231.963 16.066 280.101 16.066 328.239 55.228 367.402 103.366 367.402 151.504 367.402 190.667 328.239 190.667 280.101 190.667 231.963 151.504 192.801 103.366 192.801Z" fill="#A34F3E"/><path d="M103.367 192.801 103.366 367.402 103.367 367.402C151.504 367.402 190.667 328.239 190.667 280.101 190.667 231.963 151.504 192.801 103.367 192.801Z" fill="#873F2E"/><path d="M408.634 192.801C360.496 192.801 321.333 231.963 321.333 280.101 321.333 328.239 360.496 367.402 408.634 367.402 456.772 367.402 495.934 328.239 495.934 280.101 495.934 231.963 456.772 192.801 408.634 192.801Z" fill="#FDD1A3"/><path d="M408.634 192.801 408.633 367.402 408.634 367.402C456.772 367.402 495.934 328.239 495.934 280.101 495.934 231.963 456.772 192.801 408.634 192.801Z" fill="#FFBB85"/><path d="M256 192.801C207.863 192.801 168.7 231.963 168.7 280.101 168.7 328.239 207.863 367.402 256 367.402 304.137 367.402 343.3 328.239 343.3 280.101 343.3 231.963 304.137 192.801 256 192.801Z" fill="#FFCDBE"/><path d="M286.26 142.882C288.453 144.035 290.85 144.605 293.239 144.605L293.28 144.605C301.554 144.594 308.261 137.882 308.261 129.605 308.261 128.454 308.13 127.331 307.884 126.253L302.243 93.376 326.721 69.517C330.81 65.532 332.282 59.571 330.517 54.141 328.753 48.71 324.059 44.753 318.409 43.932L284.584 39.016 269.451 8.362C266.924 3.241 261.709 5.32907e-15 255.999 5.32907e-15L255.999 126.975 256 126.974Z" fill="#FF9F04"/><path d="M256 192.801 255.999 192.801 255.999 367.402 256 367.402C304.137 367.402 343.3 328.239 343.3 280.101 343.3 231.963 304.137 192.801 256 192.801Z" fill="#FFBEAA"/></svg>